<svg width="24" height="25" viewBox="0 0 24 25" fill="none" xmlns="http://www.w3.org/2000/svg">
<path d="M15.5 12.5C15.5 14.433 13.933 16 12 16C10.067 16 8.5 14.433 8.5 12.5C8.5 10.567 10.067 9 12 9C13.933 9 15.5 10.567 15.5 12.5Z" stroke="#141B34" stroke-width="1.5"/>
<path d="M21.011 14.5965C21.5329 14.4558 21.7939 14.3854 21.8969 14.2508C22 14.1163 22 13.8998 22 13.4669V11.5332C22 11.1003 22 10.8838 21.8969 10.7493C21.7938 10.6147 21.5329 10.5443 21.011 10.4036C19.0606 9.87759 17.8399 7.83851 18.3433 5.90087C18.4817 5.36799 18.5509 5.10156 18.4848 4.94529C18.4187 4.78902 18.2291 4.68134 17.8497 4.46596L16.125 3.48673C15.7528 3.27539 15.5667 3.16972 15.3997 3.19222C15.2326 3.21472 15.0442 3.40273 14.6672 3.77873C13.208 5.23448 10.7936 5.23442 9.33434 3.77864C8.95743 3.40263 8.76898 3.21463 8.60193 3.19212C8.43489 3.16962 8.24877 3.27529 7.87653 3.48663L6.15184 4.46587C5.77253 4.68123 5.58287 4.78891 5.51678 4.94515C5.45068 5.1014 5.51987 5.36787 5.65825 5.9008C6.16137 7.8385 4.93972 9.87763 2.98902 10.4036C2.46712 10.5443 2.20617 10.6147 2.10308 10.7492C2 10.8838 2 11.1003 2 11.5332V13.4669C2 13.8998 2 14.1163 2.10308 14.2508C2.20615 14.3854 2.46711 14.4558 2.98902 14.5965C4.9394 15.1225 6.16008 17.1616 5.65672 19.0992C5.51829 19.6321 5.44907 19.8985 5.51516 20.0548C5.58126 20.2111 5.77092 20.3188 6.15025 20.5341L7.87495 21.5134C8.24721 21.7247 8.43334 21.8304 8.6004 21.8079C8.76746 21.7854 8.95588 21.5973 9.33271 21.2213C10.7927 19.7644 13.2088 19.7643 14.6689 21.2212C15.0457 21.5973 15.2341 21.7853 15.4012 21.8078C15.5682 21.8303 15.7544 21.7246 16.1266 21.5133L17.8513 20.534C18.2307 20.3187 18.4204 20.211 18.4864 20.0547C18.5525 19.8984 18.4833 19.632 18.3448 19.0991C17.8412 17.1616 19.0609 15.1226 21.011 14.5965Z" stroke="#141B34" stroke-width="1.5" stroke-linecap="round"/>
</svg>
