<svg width="230" height="108" viewBox="0 0 230 108" fill="none" xmlns="http://www.w3.org/2000/svg">
<path fill-rule="evenodd" clip-rule="evenodd" d="M115.5 60.5858V0.292892H114.5V60.5858H4.0001V105.879L1.67167 103.55C1.47641 103.355 1.15982 103.355 0.964562 103.55C0.7693 103.746 0.7693 104.062 0.964562 104.257L4.14654 107.439C4.3418 107.635 4.65839 107.635 4.85365 107.439L8.03563 104.257C8.23089 104.062 8.23089 103.746 8.03563 103.55C7.84037 103.355 7.52378 103.355 7.32852 103.55L5.0001 105.879V61.5858H225V105.879L222.672 103.55C222.476 103.355 222.16 103.355 221.965 103.55C221.769 103.746 221.769 104.062 221.965 104.257L225.147 107.439C225.342 107.635 225.658 107.635 225.854 107.439L229.036 104.257C229.231 104.062 229.231 103.746 229.036 103.55C228.84 103.355 228.524 103.355 228.329 103.55L226 105.879V60.5858H115.5Z" fill="black"/>
</svg>
