<svg width="594" height="108" viewBox="0 0 594 108" fill="none" xmlns="http://www.w3.org/2000/svg">
<path fill-rule="evenodd" clip-rule="evenodd" d="M283.5 60.2929V0H282.5V60.2929H4.0001V105.586L1.67167 103.257C1.47641 103.062 1.15982 103.062 0.964562 103.257C0.7693 103.453 0.7693 103.769 0.964562 103.964L4.14654 107.146C4.3418 107.342 4.65839 107.342 4.85365 107.146L8.03563 103.964C8.23089 103.769 8.23089 103.453 8.03563 103.257C7.84037 103.062 7.52378 103.062 7.32852 103.257L5.0001 105.586V61.2929H589V105.586L586.672 103.257C586.476 103.062 586.16 103.062 585.965 103.257C585.769 103.453 585.769 103.769 585.965 103.964L589.147 107.146C589.342 107.342 589.658 107.342 589.854 107.146L593.036 103.964C593.231 103.769 593.231 103.453 593.036 103.257C592.84 103.062 592.524 103.062 592.328 103.257L590 105.586V60.2929H283.5Z" fill="black"/>
</svg>
