<svg width="16" height="16" viewBox="0 0 16 16" fill="none" xmlns="http://www.w3.org/2000/svg">
<mask id="mask0_15_446" style="mask-type:alpha" maskUnits="userSpaceOnUse" x="0" y="0" width="16" height="16">
<rect width="16" height="16" fill="#8D8F94"/>
</mask>
<g mask="url(#mask0_15_446)">
<path d="M10.7333 9.90278L9.76663 8.89584C9.86663 8.35186 9.71663 7.8426 9.31663 7.36806C8.91663 6.89352 8.39996 6.70834 7.76663 6.8125L6.79996 5.80556C6.98885 5.71297 7.18052 5.64352 7.37496 5.59723C7.5694 5.55093 7.77774 5.52778 7.99996 5.52778C8.83329 5.52778 9.54163 5.8316 10.125 6.43924C10.7083 7.04688 11 7.78473 11 8.65278C11 8.88426 10.9777 9.10128 10.9333 9.30382C10.8888 9.50637 10.8222 9.70602 10.7333 9.90278ZM12.8666 12.0903L11.9 11.1181C12.3222 10.7824 12.6972 10.4149 13.025 10.0156C13.3527 9.61632 13.6333 9.16204 13.8666 8.65278C13.3111 7.4838 12.5138 6.55498 11.475 5.86632C10.4361 5.17767 9.27774 4.83334 7.99996 4.83334C7.67774 4.83334 7.36107 4.85649 7.04996 4.90278C6.73885 4.94908 6.43329 5.01852 6.13329 5.11111L5.09996 4.03473C5.55552 3.83797 6.02218 3.6904 6.49996 3.59202C6.97774 3.49364 7.47774 3.44445 7.99996 3.44445C9.67774 3.44445 11.1722 3.92767 12.4833 4.8941C13.7944 5.86054 14.7444 7.11343 15.3333 8.65278C15.0777 9.33565 14.7416 9.96933 14.325 10.5538C13.9083 11.1383 13.4222 11.6505 12.8666 12.0903ZM13.2 16.3611L10.4 13.4792C10.0111 13.6065 9.6194 13.702 9.22496 13.7656C8.83052 13.8293 8.42218 13.8611 7.99996 13.8611C6.32218 13.8611 4.82774 13.3779 3.51663 12.4115C2.20552 11.445 1.25551 10.1921 0.666626 8.65278C0.899959 8.03936 1.1944 7.46933 1.54996 6.94271C1.90551 6.41609 2.31107 5.94445 2.76663 5.52778L0.933293 3.58334L1.86663 2.61111L14.1333 15.3889L13.2 16.3611ZM3.69996 6.5C3.37774 6.80093 3.08329 7.13079 2.81663 7.48959C2.54996 7.84838 2.32218 8.23612 2.13329 8.65278C2.68885 9.82176 3.48607 10.7506 4.52496 11.4392C5.56385 12.1279 6.72218 12.4722 7.99996 12.4722C8.22218 12.4722 8.43885 12.4578 8.64996 12.4288C8.86107 12.3999 9.07774 12.3681 9.29996 12.3333L8.69996 11.6736C8.57774 11.7083 8.46107 11.7344 8.34996 11.7517C8.23885 11.7691 8.12218 11.7778 7.99996 11.7778C7.16663 11.7778 6.45829 11.474 5.87496 10.8663C5.29163 10.2587 4.99996 9.52084 4.99996 8.65278C4.99996 8.52547 5.00829 8.40394 5.02496 8.2882C5.04163 8.17246 5.06663 8.05093 5.09996 7.92362L3.69996 6.5Z" fill="#8D8F94"/>
</g>
</svg>
